<?xml version="1.0" encoding="utf-8"?><svg xmlns="http://www.w3.org/2000/svg" xmlns:xlink="http://www.w3.org/1999/xlink"><symbol viewBox="0 0 8 6" id="arrowdown-svg" xmlns="http://www.w3.org/2000/svg"><g fill="none" fill-rule="evenodd" opacity=".5"><path fill="#333" d="M.94.893L4 3.947 7.06.893l.94.94-4 4-4-4z"/><path d="M-4-4.833h16v16H-4z"/></g></symbol><symbol viewBox="0 0 24 16" id="cloud-svg" xmlns="http://www.w3.org/2000/svg"><g fill="none" fill-rule="evenodd" opacity=".5"><path d="M0-4h24v24H0z"/><path fill="#333" d="M19.35 6.04A7.49 7.49 0 0012 0C9.11 0 6.6 1.64 5.35 4.04A5.994 5.994 0 000 10c0 3.31 2.69 6 6 6h13c2.76 0 5-2.24 5-5 0-2.64-2.05-4.78-4.65-4.96zM17 9l-5 5-5-5h3V5h4v4h3z"/></g></symbol><symbol viewBox="0 0 110 110" id="coin-svg" xmlns="http://www.w3.org/2000/svg"><path d="M55 27c15.439 0 28 12.561 28 28S70.439 83 55 83 27 70.439 27 55s12.561-28 28-28m0-4c-17.673 0-32 14.327-32 32 0 17.673 14.327 32 32 32s32-14.327 32-32c0-17.673-14.327-32-32-32z" fill="#fbec9a"/><path d="M55 83c-15.439 0-28-12.561-28-28s12.561-28 28-28 28 12.561 28 28-12.561 28-28 28z" fill="#facb1b"/><path d="M55 27c-15.439 0-28 12.561-28 28 0 7.946 3.333 15.124 8.667 20.225l39.558-39.558C70.124 30.332 62.946 27 55 27z" fill="#fbe158"/><path d="M27 55c0-15.439 12.561-28 28-28 7.925 0 15.086 3.315 20.185 8.625l2.838-2.838C72.203 26.757 64.042 23 55 23c-17.673 0-32 14.327-32 32 0 9.042 3.757 17.203 9.787 23.022l2.838-2.838C30.315 70.086 27 62.925 27 55z" fill="#fcf6c2"/><path d="M69.377 66.761c-2.592 3.36-5.809 5.617-10.753 5.617-7.105 0-12.097-4.561-13.921-11.377h-2.592a2.049 2.049 0 01-2.064-2.064c0-1.104.912-2.064 2.064-2.064h1.872c-.048-.576-.048-1.2-.048-1.824 0-.72 0-1.488.096-2.208h-1.92c-1.152 0-2.064-.912-2.064-2.017 0-1.152.912-2.064 2.064-2.064h2.688c1.872-6.48 6.817-11.137 13.633-11.137 5.088 0 8.161 2.016 10.657 4.896.384.384.768 1.104.768 1.968 0 1.536-1.296 2.784-2.832 2.784-1.008 0-1.68-.48-2.064-.96-1.824-2.208-3.696-3.408-6.673-3.408-3.456 0-6.048 2.256-7.393 5.856h8.545c1.104 0 2.016.912 2.016 2.064a2.029 2.029 0 01-2.016 2.017h-9.457c-.096.672-.096 1.392-.096 2.112 0 .672 0 1.296.048 1.92h9.505c1.104 0 2.016.96 2.016 2.064 0 1.152-.912 2.064-2.016 2.064H50.8c1.344 3.84 4.08 6.096 7.873 6.096 2.88 0 4.752-1.392 6.576-3.648.48-.576 1.152-.96 2.064-.96 1.44 0 2.64 1.152 2.64 2.592 0 .721-.288 1.345-.576 1.681z" fill="#8e6134"/></symbol><symbol viewBox="0 0 512 512" id="downarrow-svg" xmlns="http://www.w3.org/2000/svg"><path d="M98.9 184.7l1.8 2.1 136 156.5c4.6 5.3 11.5 8.6 19.2 8.6 7.7 0 14.6-3.4 19.2-8.6L411 187.1l2.3-2.6c1.7-2.5 2.7-5.5 2.7-8.7 0-8.7-7.4-15.8-16.6-15.8H112.6c-9.2 0-16.6 7.1-16.6 15.8 0 3.3 1.1 6.4 2.9 8.9z"/></symbol><symbol viewBox="0 0 16 16" id="notification-svg" xmlns="http://www.w3.org/2000/svg"><path d="M13 5A5 5 0 003 5v5l-3 2v1h16v-1l-3-2V5zm-3 9H6a2 2 0 104 0z"/></symbol><symbol viewBox="0 0 8 12" id="rightarrow-svg" xmlns="http://www.w3.org/2000/svg"><g fill="none" fill-rule="evenodd"><path fill="#5E6D82" d="M2 0L.59 1.41 5.17 6 .59 10.59 2 12l6-6z"/><path d="M-8-6h24v24H-8z"/></g></symbol><symbol viewBox="0 0 14 15" id="search-svg" xmlns="http://www.w3.org/2000/svg"><g fill="#333" fill-rule="evenodd" opacity=".5"><path d="M6 12A6 6 0 116 0a6 6 0 010 12zm0-2a4 4 0 100-8 4 4 0 000 8z"/><path d="M8.71 11.123a.999.999 0 01-.003-1.416.994.994 0 011.416.002l3.532 3.532a.999.999 0 01.002 1.416.994.994 0 01-1.416-.002l-3.532-3.532z"/></g></symbol><symbol viewBox="0 0 16 16" id="shareBtn-svg" xmlns="http://www.w3.org/2000/svg"><path d="M15 3a2 2 0 11-4 0 2 2 0 114 0zm0 10a2 2 0 11-4 0 2 2 0 114 0zM5 8a2 2 0 11-4 0 2 2 0 114 0z"/><path d="M13 3L3 8l10 5" fill="none" stroke="#000"/></symbol><symbol viewBox="0 0 1792 1792" id="shield-svg" xmlns="http://www.w3.org/2000/svg"><path d="M1344 960V320H896v1137q119-63 213-137 235-184 235-360zm192-768v768q0 86-33.5 170.5t-83 150-118 127.5-126.5 103-121 77.5-89.5 49.5-42.5 20q-12 6-26 6t-26-6q-16-7-42.5-20t-89.5-49.5-121-77.5-126.5-103-118-127.5-83-150T256 960V192q0-26 19-45t45-19h1152q26 0 45 19t19 45z"/></symbol><symbol viewBox="0 0 18 11" id="sort-svg" xmlns="http://www.w3.org/2000/svg"><path fill="#5C6E83" fill-rule="evenodd" d="M15 7.01V0h-2v7.01h-3L14 11l4-3.99h-3zM4 0L0 3.99h3V11h2V3.99h3L4 0z" opacity=".5"/></symbol><symbol viewBox="0 0 512 512" id="speaker-svg" xmlns="http://www.w3.org/2000/svg"><path d="M271.1 346.6c9.7 0 9.7-15 0-15s-9.7 15 0 15z"/><path d="M239.6 311.8c8.4 10.5 16.9 20.9 25.3 31.4 7.2 8.9 9.4 19.7 5.7 30.6-3.9 11.5-15.3 16.5-25.7 20.9-3.8 1.6-6.4 4.9-5.2 9.2 1 3.6 5.4 6.8 9.2 5.2 13.6-5.7 26.5-11.7 33.6-25.5 8.2-15.7 5.8-35-5.1-48.7-9-11.3-18.1-22.5-27.2-33.8-2.6-3.2-7.9-2.7-10.6 0-3.1 3.2-2.6 7.5 0 10.7zM216.3 507c9.7 0 9.7-15 0-15s-9.7 15 0 15z"/><path d="M150.7 340.7c2.6 22.9 5.1 45.7 7.7 68.6 1.6 14.1 3.1 28.2 4.7 42.2 1.2 11.1 2 21.9 7.7 31.9 11.9 21.2 39.3 29.3 61.2 19.6 18.8-8.3 30.6-28.6 28.3-49-2.2-20.1-4.5-40.3-6.7-60.4-3.1-28-6.3-56-9.4-84-.5-4.1-3.1-7.5-7.5-7.5-3.7 0-8 3.4-7.5 7.5 5.1 45.5 10.2 91.1 15.3 136.6.5 4.8 1.3 9.6 1.2 14.4-.2 10.1-6 19.9-14.2 25.7-18.2 12.7-43.8 3.7-50.6-17.2-2.5-7.6-2.5-16.4-3.4-24.3-1.7-15.1-3.4-30.3-5.1-45.4-2.2-19.6-4.4-39.1-6.5-58.7-.5-4.1-3.1-7.5-7.5-7.5-3.9 0-8.1 3.4-7.7 7.5z"/><path d="M281.4 78.1c0-1.9-1.2 2.8-1.1 2.6-.5 1.4-1 2.7-1.6 4.1-1.3 2.9-3 5.6-4.8 8.3-4.1 6-10.2 10.7-15.7 15.3-10.8 9-22.6 16.9-34.6 24.1-21.4 12.7-44.3 22.5-67.4 31.7-34.5 13.7-77.2 26.6-95.7 62-11.7 22.4-12.5 49.5-2.4 72.6 10.1 23.1 29.9 40.6 53.7 48.5 13.9 4.6 28.8 4.8 43.1 2 15-3 29.3-10.6 43.3-16.4 29.1-12 58.5-23.6 88.9-32 15.3-4.2 30.8-7.6 46.6-9.2 7.3-.8 14.8-1.4 22.1-.1 3.7.7 7.5 1.8 10.9 3.3 3.1 1.3 6.2 4.1 9.7 4.1 9.7 0 9.7-15 0-15 1.3.3 2.5.7 3.8 1-26.2-15.3-58.3-8.2-86.1-1.5-30.6 7.4-60.1 18.7-89.1 30.5-14.5 5.9-28.8 12.4-43.4 17.8-13.7 5.1-28.4 5.7-42.5 2-23.3-6.1-42.3-24.8-49.7-47.5-6.7-20.4-3.2-45.1 10.2-62.2 11-14.1 27.2-22.8 43.2-30.1 20.2-9.3 41.2-16.6 61.7-25.2 24.3-10.3 47.7-22.5 69.2-37.9 9.8-7.1 20-14.6 28.2-23.6 3.7-4 6.8-8.6 9.3-13.4 2.3-4.4 5.5-10.6 5.5-15.6-.3-9.9-15.3-9.9-15.3-.2z"/><path d="M428.5 318.3c-10.1 3.9-20.3 3-29.4-3.1-4.1-2.7-7.1-6.9-9.4-11.2-1.5-2.8 0 .3-.7-1.4-2.1-5.2-4.2-10.3-6.4-15.5-10-24.4-20-48.8-30-73.3-20.3-49.4-40.5-98.8-60.8-148.2-3.7-9.1-5.6-17.7-2.1-27.5 3.6-10 13.2-16.3 23.3-18.2 10-1.9 20.3 3 26.9 10.3 4 4.4 5.2 9 7.7 15 3.6 8.7 7.2 17.4 10.7 26.2 23 56.2 46.1 112.4 69.1 168.6 4.7 11.6 9.5 23.2 14.2 34.7 1.3 3.1 2.6 6.2 3.5 9.5 3.9 14.7-5.2 28.9-18.5 34.7-3.8 1.6-4.6 7.1-2.7 10.3 2.3 3.8 6.5 4.3 10.3 2.7 21.3-9.2 32.6-35.2 23.7-56.9-1.5-3.7-3.1-7.4-4.6-11.2-9.4-22.8-18.7-45.7-28.1-68.5-21-51.3-42.1-102.8-63.3-154.3-2.5-6.1-4.7-12.4-8.6-17.7-14.2-19.7-42.5-24.3-62.2-10C275 25 268.2 47.1 275.8 65.8c1.9 4.7 3.8 9.3 5.7 14 22.1 53.9 44.2 107.7 66.3 161.6 7.9 19.3 15.8 38.6 23.8 58 1.7 4.1 3.3 8.3 5.2 12.4 9.7 20.3 35.2 29.1 55.7 21.2 3.8-1.5 6.4-5 5.2-9.2-1-3.9-5.4-6.9-9.2-5.5z"/></symbol><symbol viewBox="0 0 24 24" id="threedotmenuBtn-svg" xmlns="http://www.w3.org/2000/svg"><circle cx="12" cy="12" r="2"/><circle cx="12" cy="5" r="2"/><circle cx="12" cy="19" r="2"/></symbol></svg>