<svg enable-background="new 0 0 512 512" id="Layer_1" version="1.0" viewBox="0 0 512 512" xml:space="preserve" xmlns="http://www.w3.org/2000/svg" xmlns:xlink="http://www.w3.org/1999/xlink"><g><g><g><path d="M271.1,346.6c9.7,0,9.7-15,0-15C261.4,331.6,261.4,346.6,271.1,346.6L271.1,346.6z"/><path d="M239.6,311.8c8.4,10.5,16.9,20.9,25.3,31.4c7.2,8.9,9.4,19.7,5.7,30.6c-3.9,11.5-15.3,16.5-25.7,20.9     c-3.8,1.6-6.4,4.9-5.2,9.2c1,3.6,5.4,6.8,9.2,5.2c13.6-5.7,26.5-11.7,33.6-25.5c8.2-15.7,5.8-35-5.1-48.7     c-9-11.3-18.1-22.5-27.2-33.8c-2.6-3.2-7.9-2.7-10.6,0C236.5,304.3,237,308.6,239.6,311.8L239.6,311.8z"/></g></g><g><g><path d="M216.3,507c9.7,0,9.7-15,0-15S206.6,507,216.3,507L216.3,507z"/><path d="M150.7,340.7c2.6,22.9,5.1,45.7,7.7,68.6c1.6,14.1,3.1,28.2,4.7,42.2c1.2,11.1,2,21.9,7.7,31.9     c11.9,21.2,39.3,29.3,61.2,19.6c18.8-8.3,30.6-28.6,28.3-49c-2.2-20.1-4.5-40.3-6.7-60.4c-3.1-28-6.3-56-9.4-84     c-0.5-4.1-3.1-7.5-7.5-7.5c-3.7,0-8,3.4-7.5,7.5c5.1,45.5,10.2,91.1,15.3,136.6c0.5,4.8,1.3,9.6,1.2,14.4     c-0.2,10.1-6,19.9-14.2,25.7c-18.2,12.7-43.8,3.7-50.6-17.2c-2.5-7.6-2.5-16.4-3.4-24.3c-1.7-15.1-3.4-30.3-5.1-45.4     c-2.2-19.6-4.4-39.1-6.5-58.7c-0.5-4.1-3.1-7.5-7.5-7.5C154.5,333.2,150.3,336.6,150.7,340.7L150.7,340.7z"/></g></g><g><g><path d="M281.4,78.1c0-1.9-1.2,2.8-1.1,2.6c-0.5,1.4-1,2.7-1.6,4.1c-1.3,2.9-3,5.6-4.8,8.3c-4.1,6-10.2,10.7-15.7,15.3     c-10.8,9-22.6,16.9-34.6,24.1c-21.4,12.7-44.3,22.5-67.4,31.7c-34.5,13.7-77.2,26.6-95.7,62c-11.7,22.4-12.5,49.5-2.4,72.6     c10.1,23.1,29.9,40.6,53.7,48.5c13.9,4.6,28.8,4.8,43.1,2c15-3,29.3-10.6,43.3-16.4c29.1-12,58.5-23.6,88.9-32     c15.3-4.2,30.8-7.6,46.6-9.2c7.3-0.8,14.8-1.4,22.1-0.1c3.7,0.7,7.5,1.8,10.9,3.3c3.1,1.3,6.2,4.1,9.7,4.1c9.7,0,9.7-15,0-15     c0,0,0,0,0,0c1.3,0.3,2.5,0.7,3.8,1c-26.2-15.3-58.3-8.2-86.1-1.5c-30.6,7.4-60.1,18.7-89.1,30.5c-14.5,5.9-28.8,12.4-43.4,17.8     c-13.7,5.1-28.4,5.7-42.5,2c-23.3-6.1-42.3-24.8-49.7-47.5c-6.7-20.4-3.2-45.1,10.2-62.2c11-14.1,27.2-22.8,43.2-30.1     c20.2-9.3,41.2-16.6,61.7-25.2c24.3-10.3,47.7-22.5,69.2-37.9c9.8-7.1,20-14.6,28.2-23.6c3.7-4,6.8-8.6,9.3-13.4     c2.3-4.4,5.5-10.6,5.5-15.6C296.4,68.4,281.4,68.4,281.4,78.1L281.4,78.1z"/></g></g><g><g><g><path d="M428.5,318.3c-10.1,3.9-20.3,3-29.4-3.1c-4.1-2.7-7.1-6.9-9.4-11.2c-1.5-2.8,0,0.3-0.7-1.4c-2.1-5.2-4.2-10.3-6.4-15.5      c-10-24.4-20-48.8-30-73.3c-20.3-49.4-40.5-98.8-60.8-148.2c-3.7-9.1-5.6-17.7-2.1-27.5c3.6-10,13.2-16.3,23.3-18.2      c10-1.9,20.3,3,26.9,10.3c4,4.4,5.2,9,7.7,15c3.6,8.7,7.2,17.4,10.7,26.2c23,56.2,46.1,112.4,69.1,168.6      c4.7,11.6,9.5,23.2,14.2,34.7c1.3,3.1,2.6,6.2,3.5,9.5c3.9,14.7-5.2,28.9-18.5,34.7c-3.8,1.6-4.6,7.1-2.7,10.3      c2.3,3.8,6.5,4.3,10.3,2.7c21.3-9.2,32.6-35.2,23.7-56.9c-1.5-3.7-3.1-7.4-4.6-11.2c-9.4-22.8-18.7-45.7-28.1-68.5      C404.2,144,383.1,92.5,361.9,41c-2.5-6.1-4.7-12.4-8.6-17.7c-14.2-19.7-42.5-24.3-62.2-10C275,25,268.2,47.1,275.8,65.8      c1.9,4.7,3.8,9.3,5.7,14c22.1,53.9,44.2,107.7,66.3,161.6c7.9,19.3,15.8,38.6,23.8,58c1.7,4.1,3.3,8.3,5.2,12.4      c9.7,20.3,35.2,29.1,55.7,21.2c3.8-1.5,6.4-5,5.2-9.2C436.7,319.9,432.3,316.9,428.5,318.3z"/></g></g></g></g></svg>